<?xml version="1.0" encoding="UTF-8"?>
<svg xmlns="http://www.w3.org/2000/svg" xmlns:xlink="http://www.w3.org/1999/xlink" width="86pt" height="15pt" viewBox="0 0 86 15" version="1.1">
    <g id="surface1">
        <path style=" stroke:none;fill-rule:evenodd;fill:rgb(64.705882%,64.705882%,64.705882%);fill-opacity:1;" d="M 15.460938 1.8125 C 15.460938 0.886719 16.203125 0.136719 17.113281 0.136719 L 83.875 0.136719 C 84.789062 0.136719 85.53125 0.886719 85.53125 1.8125 L 85.53125 13.175781 C 85.53125 14.097656 84.789062 14.851562 83.875 14.851562 L 17.113281 14.851562 C 16.203125 14.851562 15.460938 14.097656 15.460938 13.175781 Z M 15.460938 1.8125 "/>
        <path style=" stroke:none;fill-rule:evenodd;fill:rgb(26.666667%,44.705882%,76.862745%);fill-opacity:1;" d="M 0.335938 1.613281 C 0.335938 0.796875 0.984375 0.136719 1.792969 0.136719 L 16.882812 0.136719 C 17.683594 0.136719 18.335938 0.796875 18.335938 1.613281 L 18.335938 13.378906 C 18.335938 14.191406 17.683594 14.851562 16.882812 14.851562 L 1.792969 14.851562 C 0.984375 14.851562 0.335938 14.191406 0.335938 13.378906 Z M 0.335938 1.613281 "/>
        <path style=" stroke:none;fill-rule:evenodd;fill:rgb(100%,100%,100%);fill-opacity:1;" d="M 15.046875 3.859375 L 14.191406 3.859375 L 14.191406 2.960938 C 14.191406 2.761719 14.042969 2.585938 13.839844 2.554688 C 13.804688 2.550781 12.96875 2.425781 11.960938 2.609375 C 10.839844 2.816406 9.945312 3.320312 9.335938 4.089844 C 8.726562 3.320312 7.832031 2.816406 6.710938 2.609375 C 5.703125 2.425781 4.867188 2.550781 4.835938 2.554688 C 4.628906 2.585938 4.484375 2.761719 4.484375 2.960938 L 4.484375 3.859375 L 3.621094 3.859375 C 3.394531 3.859375 3.214844 4.042969 3.214844 4.269531 L 3.214844 12.0625 C 3.214844 12.199219 3.277344 12.328125 3.386719 12.398438 C 3.492188 12.480469 3.632812 12.503906 3.757812 12.457031 C 3.789062 12.445312 6.867188 11.390625 9.164062 12.445312 C 9.273438 12.492188 9.398438 12.492188 9.507812 12.445312 C 11.792969 11.390625 14.882812 12.445312 14.914062 12.457031 C 14.957031 12.472656 15.003906 12.480469 15.046875 12.480469 C 15.136719 12.480469 15.214844 12.453125 15.289062 12.398438 C 15.394531 12.328125 15.460938 12.199219 15.460938 12.0625 L 15.460938 4.269531 C 15.460938 4.042969 15.277344 3.859375 15.046875 3.859375 Z M 4.035156 11.511719 L 4.035156 4.683594 L 4.484375 4.683594 L 4.484375 10.191406 C 4.484375 10.3125 4.535156 10.425781 4.625 10.507812 C 4.714844 10.582031 4.835938 10.621094 4.953125 10.601562 C 4.976562 10.597656 6.761719 10.351562 8.066406 11.253906 C 6.460938 10.980469 4.847656 11.296875 4.035156 11.511719 Z M 8.925781 10.878906 C 8.351562 10.355469 7.601562 10.003906 6.710938 9.839844 C 6.28125 9.761719 5.886719 9.738281 5.566406 9.738281 C 5.46875 9.738281 5.382812 9.742188 5.300781 9.746094 L 5.300781 3.34375 C 6.09375 3.308594 8.015625 3.390625 8.925781 4.945312 Z M 9.75 4.945312 C 10.65625 3.398438 12.574219 3.3125 13.367188 3.34375 L 13.367188 9.746094 C 13.023438 9.730469 12.519531 9.738281 11.960938 9.839844 C 11.066406 10.003906 10.324219 10.355469 9.75 10.878906 Z M 10.605469 11.253906 C 11.910156 10.351562 13.695312 10.597656 13.71875 10.601562 C 13.835938 10.621094 13.957031 10.582031 14.046875 10.507812 C 14.136719 10.425781 14.191406 10.3125 14.191406 10.191406 L 14.191406 4.683594 L 14.636719 4.683594 L 14.636719 11.511719 C 13.820312 11.296875 12.214844 10.980469 10.605469 11.253906 Z M 10.605469 11.253906 "/>
        <path style=" stroke:none;fill-rule:nonzero;fill:rgb(0%,0%,0%);fill-opacity:1;" d="M 26.117188 5.707031 C 26.117188 6.105469 26.050781 6.46875 25.917969 6.796875 C 25.785156 7.117188 25.597656 7.394531 25.351562 7.628906 C 25.109375 7.859375 24.8125 8.035156 24.460938 8.15625 C 24.101562 8.285156 23.675781 8.34375 23.1875 8.34375 L 22.28125 8.34375 L 22.28125 11.238281 C 22.28125 11.273438 22.269531 11.300781 22.25 11.332031 C 22.230469 11.355469 22.203125 11.375 22.164062 11.390625 C 22.125 11.402344 22.074219 11.417969 22.003906 11.425781 C 21.933594 11.433594 21.847656 11.4375 21.75 11.4375 C 21.644531 11.4375 21.5625 11.433594 21.492188 11.425781 C 21.421875 11.417969 21.367188 11.402344 21.332031 11.390625 C 21.292969 11.375 21.261719 11.355469 21.242188 11.332031 C 21.222656 11.300781 21.214844 11.273438 21.214844 11.238281 L 21.214844 3.808594 C 21.214844 3.644531 21.253906 3.527344 21.34375 3.457031 C 21.4375 3.386719 21.535156 3.351562 21.644531 3.351562 L 23.347656 3.351562 C 23.515625 3.351562 23.675781 3.363281 23.832031 3.375 C 23.996094 3.382812 24.183594 3.410156 24.402344 3.457031 C 24.613281 3.503906 24.835938 3.597656 25.0625 3.726562 C 25.285156 3.859375 25.472656 4.023438 25.628906 4.21875 C 25.78125 4.40625 25.902344 4.625 25.988281 4.875 C 26.070312 5.125 26.117188 5.402344 26.117188 5.707031 Z M 25.003906 5.789062 C 25.003906 5.460938 24.941406 5.1875 24.820312 4.96875 C 24.695312 4.753906 24.546875 4.589844 24.367188 4.476562 C 24.1875 4.367188 24 4.300781 23.8125 4.277344 C 23.625 4.25 23.4375 4.230469 23.257812 4.230469 L 22.28125 4.230469 L 22.28125 7.464844 L 23.230469 7.464844 C 23.554688 7.464844 23.824219 7.421875 24.03125 7.335938 C 24.238281 7.25 24.414062 7.136719 24.550781 6.996094 C 24.699219 6.847656 24.8125 6.671875 24.886719 6.46875 C 24.964844 6.257812 25.003906 6.03125 25.003906 5.789062 Z M 25.003906 5.789062 "/>
        <path style=" stroke:none;fill-rule:nonzero;fill:rgb(0%,0%,0%);fill-opacity:1;" d="M 31.363281 11.25 C 31.363281 11.304688 31.34375 11.34375 31.316406 11.367188 C 31.28125 11.390625 31.234375 11.402344 31.175781 11.414062 C 31.121094 11.429688 31.039062 11.4375 30.933594 11.4375 C 30.820312 11.4375 30.734375 11.429688 30.664062 11.414062 C 30.601562 11.402344 30.554688 11.390625 30.527344 11.367188 C 30.503906 11.34375 30.492188 11.304688 30.492188 11.25 L 30.492188 10.6875 C 30.253906 10.953125 29.984375 11.164062 29.683594 11.308594 C 29.386719 11.449219 29.074219 11.519531 28.746094 11.519531 C 28.449219 11.519531 28.183594 11.476562 27.945312 11.402344 C 27.710938 11.328125 27.511719 11.214844 27.34375 11.074219 C 27.179688 10.929688 27.050781 10.746094 26.960938 10.535156 C 26.867188 10.324219 26.820312 10.085938 26.820312 9.820312 C 26.820312 9.5 26.882812 9.226562 27.007812 9 C 27.132812 8.765625 27.316406 8.574219 27.550781 8.414062 C 27.789062 8.257812 28.082031 8.144531 28.429688 8.074219 C 28.777344 7.996094 29.164062 7.957031 29.589844 7.957031 L 30.355469 7.957031 L 30.355469 7.511719 C 30.355469 7.300781 30.328125 7.113281 30.28125 6.949219 C 30.242188 6.777344 30.171875 6.640625 30.074219 6.527344 C 29.976562 6.417969 29.84375 6.335938 29.683594 6.28125 C 29.519531 6.230469 29.320312 6.199219 29.089844 6.199219 C 28.84375 6.199219 28.617188 6.234375 28.417969 6.292969 C 28.214844 6.351562 28.039062 6.414062 27.886719 6.492188 C 27.738281 6.5625 27.613281 6.628906 27.515625 6.691406 C 27.414062 6.746094 27.34375 6.773438 27.296875 6.773438 C 27.261719 6.773438 27.234375 6.765625 27.203125 6.75 C 27.179688 6.734375 27.15625 6.710938 27.132812 6.679688 C 27.117188 6.648438 27.105469 6.605469 27.097656 6.550781 C 27.089844 6.496094 27.085938 6.4375 27.085938 6.375 C 27.085938 6.277344 27.089844 6.195312 27.109375 6.140625 C 27.125 6.078125 27.160156 6.019531 27.214844 5.964844 C 27.265625 5.910156 27.355469 5.847656 27.492188 5.777344 C 27.632812 5.703125 27.789062 5.632812 27.96875 5.578125 C 28.140625 5.515625 28.339844 5.46875 28.546875 5.425781 C 28.753906 5.386719 28.96875 5.367188 29.183594 5.367188 C 29.578125 5.367188 29.914062 5.414062 30.191406 5.507812 C 30.476562 5.59375 30.703125 5.726562 30.875 5.90625 C 31.042969 6.078125 31.164062 6.296875 31.246094 6.5625 C 31.320312 6.820312 31.363281 7.125 31.363281 7.476562 Z M 30.355469 8.695312 L 29.484375 8.695312 C 29.203125 8.695312 28.964844 8.71875 28.753906 8.765625 C 28.550781 8.8125 28.382812 8.882812 28.246094 8.976562 C 28.113281 9.070312 28.015625 9.183594 27.957031 9.316406 C 27.890625 9.441406 27.859375 9.589844 27.859375 9.761719 C 27.859375 10.050781 27.949219 10.285156 28.128906 10.464844 C 28.3125 10.636719 28.570312 10.722656 28.894531 10.722656 C 29.164062 10.722656 29.410156 10.652344 29.636719 10.511719 C 29.867188 10.371094 30.101562 10.160156 30.355469 9.878906 Z M 30.355469 8.695312 "/>
        <path style=" stroke:none;fill-rule:nonzero;fill:rgb(0%,0%,0%);fill-opacity:1;" d="M 39.621094 10.839844 C 39.621094 10.957031 39.613281 11.050781 39.601562 11.121094 C 39.582031 11.191406 39.554688 11.242188 39.519531 11.273438 C 39.488281 11.304688 39.441406 11.335938 39.382812 11.367188 C 39.316406 11.398438 39.242188 11.417969 39.160156 11.4375 C 39.074219 11.460938 38.980469 11.476562 38.882812 11.484375 C 38.789062 11.5 38.695312 11.507812 38.605469 11.507812 C 38.320312 11.507812 38.070312 11.464844 37.863281 11.390625 C 37.660156 11.316406 37.492188 11.199219 37.367188 11.050781 C 37.230469 10.894531 37.136719 10.695312 37.074219 10.453125 C 37.011719 10.214844 36.980469 9.929688 36.980469 9.609375 L 36.980469 6.339844 L 34.238281 6.339844 L 34.238281 9.457031 C 34.238281 9.851562 34.289062 10.144531 34.398438 10.335938 C 34.515625 10.53125 34.71875 10.628906 35.015625 10.628906 C 35.105469 10.628906 35.1875 10.625 35.253906 10.605469 C 35.332031 10.582031 35.398438 10.566406 35.453125 10.546875 C 35.515625 10.523438 35.5625 10.507812 35.601562 10.488281 C 35.640625 10.464844 35.679688 10.453125 35.71875 10.453125 C 35.734375 10.453125 35.75 10.460938 35.765625 10.476562 C 35.789062 10.484375 35.804688 10.507812 35.8125 10.535156 C 35.824219 10.558594 35.839844 10.597656 35.847656 10.652344 C 35.855469 10.699219 35.859375 10.761719 35.859375 10.839844 C 35.859375 10.910156 35.855469 10.964844 35.847656 11.003906 C 35.847656 11.042969 35.839844 11.082031 35.835938 11.121094 C 35.824219 11.15625 35.8125 11.183594 35.800781 11.214844 C 35.792969 11.238281 35.769531 11.269531 35.742188 11.296875 C 35.710938 11.320312 35.664062 11.347656 35.601562 11.378906 C 35.539062 11.402344 35.46875 11.417969 35.382812 11.4375 C 35.296875 11.460938 35.210938 11.476562 35.117188 11.484375 C 35.023438 11.5 34.929688 11.507812 34.839844 11.507812 C 34.554688 11.507812 34.304688 11.464844 34.097656 11.390625 C 33.890625 11.316406 33.71875 11.199219 33.585938 11.050781 C 33.453125 10.894531 33.359375 10.695312 33.296875 10.453125 C 33.242188 10.214844 33.21875 9.929688 33.21875 9.609375 L 33.21875 6.339844 L 32.441406 6.339844 C 32.378906 6.339844 32.328125 6.308594 32.289062 6.246094 C 32.257812 6.175781 32.242188 6.0625 32.242188 5.90625 C 32.242188 5.828125 32.246094 5.765625 32.257812 5.71875 C 32.261719 5.664062 32.273438 5.617188 32.289062 5.578125 C 32.304688 5.539062 32.328125 5.515625 32.347656 5.507812 C 32.378906 5.492188 32.410156 5.484375 32.453125 5.484375 L 33.21875 5.484375 L 33.21875 4.148438 C 33.21875 4.121094 33.222656 4.089844 33.238281 4.066406 C 33.253906 4.042969 33.28125 4.023438 33.320312 4.007812 C 33.359375 3.984375 33.40625 3.96875 33.472656 3.960938 C 33.542969 3.957031 33.625 3.949219 33.726562 3.949219 C 33.824219 3.949219 33.90625 3.957031 33.96875 3.960938 C 34.039062 3.96875 34.089844 3.984375 34.121094 4.007812 C 34.160156 4.023438 34.183594 4.042969 34.203125 4.066406 C 34.226562 4.089844 34.238281 4.121094 34.238281 4.148438 L 34.238281 5.484375 L 36.980469 5.484375 L 36.980469 3.878906 C 36.980469 3.847656 36.988281 3.820312 37.003906 3.796875 C 37.019531 3.773438 37.042969 3.757812 37.085938 3.738281 C 37.125 3.722656 37.171875 3.714844 37.238281 3.703125 C 37.308594 3.6875 37.390625 3.679688 37.492188 3.679688 C 37.589844 3.679688 37.671875 3.6875 37.734375 3.703125 C 37.804688 3.714844 37.855469 3.722656 37.898438 3.738281 C 37.933594 3.757812 37.960938 3.773438 37.980469 3.796875 C 37.992188 3.820312 38 3.847656 38 3.878906 L 38 5.484375 L 39.425781 5.484375 C 39.453125 5.484375 39.484375 5.492188 39.507812 5.507812 C 39.53125 5.515625 39.550781 5.539062 39.5625 5.578125 C 39.589844 5.617188 39.605469 5.664062 39.613281 5.71875 C 39.617188 5.765625 39.621094 5.828125 39.621094 5.90625 C 39.621094 6.0625 39.605469 6.175781 39.5625 6.246094 C 39.523438 6.308594 39.480469 6.339844 39.425781 6.339844 L 38 6.339844 L 38 9.457031 C 38 9.851562 38.050781 10.144531 38.164062 10.335938 C 38.277344 10.53125 38.484375 10.628906 38.777344 10.628906 C 38.863281 10.628906 38.941406 10.625 39.019531 10.605469 C 39.097656 10.582031 39.164062 10.566406 39.21875 10.546875 C 39.277344 10.523438 39.328125 10.507812 39.367188 10.488281 C 39.414062 10.464844 39.449219 10.453125 39.484375 10.453125 C 39.507812 10.453125 39.523438 10.460938 39.542969 10.476562 C 39.554688 10.484375 39.566406 10.507812 39.578125 10.535156 C 39.59375 10.558594 39.605469 10.597656 39.613281 10.652344 C 39.617188 10.699219 39.621094 10.761719 39.621094 10.839844 Z M 39.621094 10.839844 "/>
        <path style=" stroke:none;fill-rule:nonzero;fill:rgb(0%,0%,0%);fill-opacity:1;" d="M 45.375 8.203125 C 45.375 8.367188 45.332031 8.484375 45.261719 8.554688 C 45.179688 8.621094 45.089844 8.648438 44.980469 8.648438 L 41.355469 8.648438 C 41.355469 8.960938 41.382812 9.242188 41.449219 9.492188 C 41.511719 9.746094 41.609375 9.957031 41.746094 10.136719 C 41.894531 10.308594 42.078125 10.449219 42.304688 10.546875 C 42.535156 10.640625 42.820312 10.6875 43.160156 10.6875 C 43.421875 10.6875 43.652344 10.671875 43.859375 10.628906 C 44.066406 10.582031 44.242188 10.53125 44.390625 10.476562 C 44.535156 10.421875 44.65625 10.378906 44.75 10.335938 C 44.847656 10.289062 44.925781 10.265625 44.980469 10.265625 C 45.003906 10.265625 45.027344 10.277344 45.050781 10.289062 C 45.074219 10.296875 45.09375 10.320312 45.105469 10.347656 C 45.121094 10.378906 45.132812 10.421875 45.132812 10.476562 C 45.136719 10.523438 45.144531 10.585938 45.144531 10.664062 C 45.144531 10.71875 45.136719 10.765625 45.132812 10.804688 C 45.132812 10.847656 45.125 10.878906 45.121094 10.910156 C 45.109375 10.941406 45.101562 10.96875 45.085938 10.992188 C 45.078125 11.015625 45.0625 11.039062 45.039062 11.0625 C 45.015625 11.085938 44.945312 11.125 44.828125 11.179688 C 44.71875 11.226562 44.578125 11.277344 44.402344 11.332031 C 44.230469 11.378906 44.027344 11.417969 43.789062 11.460938 C 43.554688 11.5 43.308594 11.519531 43.046875 11.519531 C 42.597656 11.519531 42.199219 11.453125 41.851562 11.332031 C 41.511719 11.199219 41.222656 11.007812 40.984375 10.757812 C 40.753906 10.5 40.570312 10.183594 40.453125 9.808594 C 40.335938 9.425781 40.277344 8.984375 40.277344 8.472656 C 40.277344 7.992188 40.339844 7.554688 40.460938 7.171875 C 40.585938 6.789062 40.765625 6.46875 40.996094 6.199219 C 41.230469 5.925781 41.507812 5.71875 41.832031 5.578125 C 42.160156 5.4375 42.53125 5.367188 42.941406 5.367188 C 43.371094 5.367188 43.742188 5.4375 44.042969 5.578125 C 44.351562 5.71875 44.601562 5.910156 44.796875 6.152344 C 44.992188 6.386719 45.144531 6.664062 45.234375 6.984375 C 45.328125 7.304688 45.375 7.648438 45.375 8.015625 Z M 44.355469 7.898438 C 44.371094 7.359375 44.253906 6.9375 43.996094 6.632812 C 43.75 6.320312 43.382812 6.164062 42.894531 6.164062 C 42.644531 6.164062 42.425781 6.21875 42.238281 6.316406 C 42.050781 6.410156 41.890625 6.535156 41.761719 6.691406 C 41.632812 6.847656 41.539062 7.03125 41.46875 7.242188 C 41.402344 7.453125 41.359375 7.671875 41.355469 7.898438 Z M 44.355469 7.898438 "/>
        <path style=" stroke:none;fill-rule:nonzero;fill:rgb(0%,0%,0%);fill-opacity:1;" d="M 50.019531 6.011719 C 50.019531 6.105469 50.011719 6.183594 50.007812 6.246094 C 50.007812 6.308594 49.996094 6.359375 49.980469 6.398438 C 49.964844 6.429688 49.949219 6.453125 49.933594 6.46875 C 49.917969 6.484375 49.894531 6.492188 49.855469 6.492188 C 49.824219 6.492188 49.785156 6.484375 49.742188 6.46875 C 49.691406 6.453125 49.636719 6.4375 49.578125 6.421875 C 49.523438 6.398438 49.457031 6.378906 49.378906 6.363281 C 49.300781 6.351562 49.222656 6.339844 49.136719 6.339844 C 49.035156 6.339844 48.933594 6.359375 48.835938 6.398438 C 48.742188 6.4375 48.636719 6.511719 48.519531 6.609375 C 48.410156 6.703125 48.300781 6.828125 48.183594 6.984375 C 48.070312 7.140625 47.9375 7.332031 47.792969 7.558594 L 47.792969 11.25 C 47.792969 11.28125 47.785156 11.308594 47.769531 11.332031 C 47.75 11.355469 47.726562 11.375 47.6875 11.390625 C 47.648438 11.402344 47.597656 11.417969 47.527344 11.425781 C 47.460938 11.433594 47.382812 11.4375 47.28125 11.4375 C 47.179688 11.4375 47.097656 11.433594 47.027344 11.425781 C 46.964844 11.417969 46.914062 11.402344 46.878906 11.390625 C 46.835938 11.375 46.8125 11.355469 46.796875 11.332031 C 46.78125 11.308594 46.773438 11.28125 46.773438 11.25 L 46.773438 5.648438 C 46.773438 5.609375 46.777344 5.578125 46.785156 5.554688 C 46.800781 5.53125 46.828125 5.515625 46.867188 5.496094 C 46.902344 5.480469 46.949219 5.472656 47.003906 5.460938 C 47.066406 5.457031 47.144531 5.449219 47.234375 5.449219 C 47.332031 5.449219 47.402344 5.457031 47.457031 5.460938 C 47.515625 5.472656 47.5625 5.480469 47.597656 5.496094 C 47.632812 5.515625 47.65625 5.53125 47.667969 5.554688 C 47.679688 5.578125 47.6875 5.609375 47.6875 5.648438 L 47.6875 6.457031 C 47.84375 6.234375 47.984375 6.046875 48.117188 5.90625 C 48.253906 5.765625 48.382812 5.65625 48.5 5.578125 C 48.617188 5.5 48.734375 5.445312 48.847656 5.414062 C 48.96875 5.382812 49.089844 5.367188 49.207031 5.367188 C 49.257812 5.367188 49.320312 5.371094 49.390625 5.378906 C 49.460938 5.378906 49.527344 5.390625 49.597656 5.414062 C 49.675781 5.429688 49.742188 5.449219 49.796875 5.472656 C 49.859375 5.488281 49.902344 5.507812 49.921875 5.53125 C 49.949219 5.546875 49.964844 5.566406 49.96875 5.589844 C 49.984375 5.605469 49.992188 5.632812 49.992188 5.660156 C 50 5.683594 50.007812 5.726562 50.007812 5.789062 C 50.011719 5.84375 50.019531 5.917969 50.019531 6.011719 Z M 50.019531 6.011719 "/>
        <path style=" stroke:none;fill-rule:nonzero;fill:rgb(0%,0%,0%);fill-opacity:1;" d="M 55.84375 11.25 C 55.84375 11.28125 55.832031 11.308594 55.816406 11.332031 C 55.800781 11.355469 55.773438 11.375 55.738281 11.390625 C 55.695312 11.402344 55.644531 11.417969 55.574219 11.425781 C 55.511719 11.433594 55.429688 11.4375 55.332031 11.4375 C 55.230469 11.4375 55.144531 11.433594 55.074219 11.425781 C 55.011719 11.417969 54.960938 11.402344 54.925781 11.390625 C 54.894531 11.375 54.867188 11.355469 54.84375 11.332031 C 54.828125 11.308594 54.820312 11.28125 54.820312 11.25 L 54.820312 7.96875 C 54.820312 7.648438 54.796875 7.390625 54.75 7.195312 C 54.707031 7 54.628906 6.832031 54.53125 6.691406 C 54.441406 6.550781 54.316406 6.445312 54.164062 6.375 C 54.011719 6.296875 53.839844 6.257812 53.652344 6.257812 C 53.394531 6.257812 53.140625 6.351562 52.886719 6.527344 C 52.632812 6.710938 52.367188 6.980469 52.089844 7.335938 L 52.089844 11.25 C 52.089844 11.28125 52.078125 11.308594 52.0625 11.332031 C 52.046875 11.355469 52.023438 11.375 51.984375 11.390625 C 51.941406 11.402344 51.890625 11.417969 51.820312 11.425781 C 51.757812 11.433594 51.675781 11.4375 51.578125 11.4375 C 51.476562 11.4375 51.390625 11.433594 51.320312 11.425781 C 51.257812 11.417969 51.207031 11.402344 51.171875 11.390625 C 51.132812 11.375 51.105469 11.355469 51.089844 11.332031 C 51.074219 11.308594 51.070312 11.28125 51.070312 11.25 L 51.070312 5.648438 C 51.070312 5.609375 51.070312 5.578125 51.082031 5.554688 C 51.09375 5.53125 51.121094 5.515625 51.160156 5.496094 C 51.199219 5.480469 51.246094 5.472656 51.300781 5.460938 C 51.363281 5.457031 51.4375 5.449219 51.53125 5.449219 C 51.625 5.449219 51.699219 5.457031 51.753906 5.460938 C 51.8125 5.472656 51.859375 5.480469 51.890625 5.496094 C 51.929688 5.515625 51.949219 5.53125 51.960938 5.554688 C 51.976562 5.578125 51.984375 5.609375 51.984375 5.648438 L 51.984375 6.386719 C 52.300781 6.035156 52.609375 5.777344 52.921875 5.613281 C 53.226562 5.449219 53.542969 5.367188 53.859375 5.367188 C 54.230469 5.367188 54.539062 5.429688 54.785156 5.554688 C 55.042969 5.679688 55.242188 5.847656 55.402344 6.058594 C 55.554688 6.269531 55.667969 6.523438 55.738281 6.808594 C 55.804688 7.089844 55.84375 7.429688 55.84375 7.828125 Z M 55.84375 11.25 "/>
        <path style=" stroke:none;fill-rule:nonzero;fill:rgb(0%,0%,0%);fill-opacity:1;" d="M 66.402344 11.027344 C 66.429688 11.113281 66.449219 11.1875 66.449219 11.25 C 66.453125 11.304688 66.4375 11.347656 66.402344 11.378906 C 66.371094 11.402344 66.316406 11.417969 66.242188 11.425781 C 66.171875 11.433594 66.070312 11.4375 65.9375 11.4375 C 65.816406 11.4375 65.710938 11.433594 65.640625 11.425781 C 65.558594 11.425781 65.5 11.417969 65.464844 11.402344 C 65.421875 11.390625 65.394531 11.367188 65.371094 11.34375 C 65.355469 11.316406 65.339844 11.28125 65.324219 11.25 L 64.640625 9.28125 L 61.332031 9.28125 L 60.679688 11.226562 C 60.671875 11.257812 60.660156 11.289062 60.632812 11.320312 C 60.609375 11.34375 60.578125 11.367188 60.542969 11.390625 C 60.5 11.402344 60.445312 11.417969 60.378906 11.425781 C 60.308594 11.433594 60.21875 11.4375 60.101562 11.4375 C 59.976562 11.4375 59.875 11.433594 59.800781 11.425781 C 59.730469 11.417969 59.675781 11.398438 59.652344 11.367188 C 59.617188 11.335938 59.601562 11.292969 59.601562 11.238281 C 59.601562 11.183594 59.617188 11.109375 59.652344 11.015625 L 62.324219 3.527344 C 62.339844 3.488281 62.359375 3.453125 62.382812 3.421875 C 62.410156 3.390625 62.453125 3.371094 62.5 3.351562 C 62.550781 3.335938 62.617188 3.324219 62.695312 3.316406 C 62.78125 3.3125 62.882812 3.304688 63.011719 3.304688 C 63.136719 3.304688 63.246094 3.3125 63.332031 3.316406 C 63.414062 3.324219 63.484375 3.335938 63.539062 3.351562 C 63.59375 3.371094 63.632812 3.390625 63.65625 3.421875 C 63.6875 3.453125 63.714844 3.492188 63.738281 3.539062 Z M 62.972656 4.417969 L 61.597656 8.4375 L 64.363281 8.4375 Z M 62.972656 4.417969 "/>
        <path style=" stroke:none;fill-rule:nonzero;fill:rgb(0%,0%,0%);fill-opacity:1;" d="M 70.011719 10.839844 C 70.011719 10.957031 70.003906 11.050781 69.988281 11.121094 C 69.96875 11.191406 69.945312 11.246094 69.90625 11.285156 C 69.875 11.316406 69.828125 11.347656 69.753906 11.378906 C 69.691406 11.402344 69.621094 11.417969 69.535156 11.4375 C 69.449219 11.460938 69.363281 11.476562 69.269531 11.484375 C 69.175781 11.5 69.082031 11.507812 68.992188 11.507812 C 68.707031 11.507812 68.457031 11.464844 68.25 11.390625 C 68.042969 11.316406 67.871094 11.199219 67.738281 11.050781 C 67.609375 10.894531 67.511719 10.695312 67.449219 10.453125 C 67.394531 10.214844 67.371094 9.929688 67.371094 9.609375 L 67.371094 6.339844 L 66.59375 6.339844 C 66.53125 6.339844 66.480469 6.308594 66.441406 6.246094 C 66.410156 6.175781 66.394531 6.0625 66.394531 5.90625 C 66.394531 5.828125 66.398438 5.765625 66.410156 5.71875 C 66.414062 5.664062 66.425781 5.617188 66.441406 5.578125 C 66.457031 5.539062 66.480469 5.515625 66.5 5.507812 C 66.53125 5.492188 66.5625 5.484375 66.605469 5.484375 L 67.371094 5.484375 L 67.371094 4.148438 C 67.371094 4.121094 67.378906 4.089844 67.390625 4.066406 C 67.40625 4.042969 67.433594 4.023438 67.476562 4.007812 C 67.511719 3.984375 67.558594 3.96875 67.625 3.960938 C 67.695312 3.957031 67.777344 3.949219 67.882812 3.949219 C 67.980469 3.949219 68.058594 3.957031 68.121094 3.960938 C 68.191406 3.96875 68.242188 3.984375 68.273438 4.007812 C 68.3125 4.023438 68.335938 4.042969 68.355469 4.066406 C 68.378906 4.089844 68.390625 4.121094 68.390625 4.148438 L 68.390625 5.484375 L 69.800781 5.484375 C 69.839844 5.484375 69.871094 5.492188 69.898438 5.507812 C 69.917969 5.515625 69.9375 5.539062 69.953125 5.578125 C 69.976562 5.617188 69.992188 5.664062 70 5.71875 C 70.007812 5.765625 70.011719 5.828125 70.011719 5.90625 C 70.011719 6.0625 69.992188 6.175781 69.953125 6.246094 C 69.910156 6.308594 69.863281 6.339844 69.800781 6.339844 L 68.390625 6.339844 L 68.390625 9.457031 C 68.390625 9.851562 68.441406 10.144531 68.554688 10.335938 C 68.667969 10.53125 68.871094 10.628906 69.167969 10.628906 C 69.257812 10.628906 69.339844 10.625 69.40625 10.605469 C 69.484375 10.582031 69.550781 10.566406 69.605469 10.546875 C 69.667969 10.523438 69.714844 10.507812 69.753906 10.488281 C 69.792969 10.464844 69.832031 10.453125 69.871094 10.453125 C 69.886719 10.453125 69.902344 10.460938 69.917969 10.476562 C 69.941406 10.484375 69.957031 10.507812 69.964844 10.535156 C 69.980469 10.558594 69.992188 10.597656 70 10.652344 C 70.007812 10.699219 70.011719 10.761719 70.011719 10.839844 Z M 70.011719 10.839844 "/>
        <path style=" stroke:none;fill-rule:nonzero;fill:rgb(0%,0%,0%);fill-opacity:1;" d="M 72.269531 11.25 C 72.269531 11.28125 72.261719 11.308594 72.25 11.332031 C 72.230469 11.355469 72.203125 11.375 72.164062 11.390625 C 72.125 11.402344 72.074219 11.417969 72.003906 11.425781 C 71.9375 11.433594 71.859375 11.4375 71.757812 11.4375 C 71.660156 11.4375 71.578125 11.433594 71.507812 11.425781 C 71.441406 11.417969 71.394531 11.402344 71.355469 11.390625 C 71.3125 11.375 71.289062 11.355469 71.273438 11.332031 C 71.253906 11.308594 71.25 11.28125 71.25 11.25 L 71.25 2.929688 C 71.25 2.902344 71.253906 2.871094 71.273438 2.847656 C 71.289062 2.820312 71.3125 2.792969 71.355469 2.777344 C 71.394531 2.761719 71.441406 2.75 71.507812 2.742188 C 71.578125 2.734375 71.660156 2.730469 71.757812 2.730469 C 71.859375 2.730469 71.9375 2.734375 72.003906 2.742188 C 72.074219 2.75 72.125 2.761719 72.164062 2.777344 C 72.203125 2.792969 72.230469 2.820312 72.25 2.847656 C 72.261719 2.871094 72.269531 2.902344 72.269531 2.929688 Z M 72.269531 11.25 "/>
        <path style=" stroke:none;fill-rule:nonzero;fill:rgb(0%,0%,0%);fill-opacity:1;" d="M 78.246094 11.25 C 78.246094 11.304688 78.230469 11.34375 78.199219 11.367188 C 78.167969 11.390625 78.125 11.402344 78.0625 11.414062 C 78.007812 11.429688 77.925781 11.4375 77.816406 11.4375 C 77.707031 11.4375 77.625 11.429688 77.554688 11.414062 C 77.488281 11.402344 77.441406 11.390625 77.410156 11.367188 C 77.390625 11.34375 77.378906 11.304688 77.378906 11.25 L 77.378906 10.6875 C 77.136719 10.953125 76.867188 11.164062 76.566406 11.308594 C 76.273438 11.449219 75.957031 11.519531 75.628906 11.519531 C 75.335938 11.519531 75.066406 11.476562 74.828125 11.402344 C 74.601562 11.328125 74.394531 11.214844 74.226562 11.074219 C 74.066406 10.929688 73.9375 10.746094 73.84375 10.535156 C 73.753906 10.324219 73.707031 10.085938 73.707031 9.820312 C 73.707031 9.5 73.765625 9.226562 73.890625 9 C 74.023438 8.765625 74.207031 8.574219 74.4375 8.414062 C 74.671875 8.257812 74.96875 8.144531 75.316406 8.074219 C 75.664062 7.996094 76.050781 7.957031 76.472656 7.957031 L 77.238281 7.957031 L 77.238281 7.511719 C 77.238281 7.300781 77.21875 7.113281 77.171875 6.949219 C 77.128906 6.777344 77.0625 6.640625 76.960938 6.527344 C 76.859375 6.417969 76.730469 6.335938 76.566406 6.28125 C 76.402344 6.230469 76.210938 6.199219 75.976562 6.199219 C 75.726562 6.199219 75.503906 6.234375 75.304688 6.292969 C 75.105469 6.351562 74.925781 6.414062 74.773438 6.492188 C 74.625 6.5625 74.5 6.628906 74.402344 6.691406 C 74.300781 6.746094 74.226562 6.773438 74.179688 6.773438 C 74.152344 6.773438 74.117188 6.765625 74.089844 6.75 C 74.066406 6.734375 74.042969 6.710938 74.019531 6.679688 C 74 6.648438 73.992188 6.605469 73.984375 6.550781 C 73.976562 6.496094 73.972656 6.4375 73.972656 6.375 C 73.972656 6.277344 73.980469 6.195312 73.996094 6.140625 C 74.011719 6.078125 74.046875 6.019531 74.101562 5.964844 C 74.152344 5.910156 74.246094 5.847656 74.378906 5.777344 C 74.515625 5.703125 74.671875 5.632812 74.851562 5.578125 C 75.03125 5.515625 75.222656 5.46875 75.433594 5.425781 C 75.640625 5.386719 75.851562 5.367188 76.066406 5.367188 C 76.460938 5.367188 76.796875 5.414062 77.074219 5.507812 C 77.359375 5.59375 77.589844 5.726562 77.761719 5.90625 C 77.929688 6.078125 78.054688 6.296875 78.132812 6.5625 C 78.207031 6.820312 78.246094 7.125 78.246094 7.476562 Z M 77.238281 8.695312 L 76.371094 8.695312 C 76.09375 8.695312 75.847656 8.71875 75.640625 8.765625 C 75.441406 8.8125 75.273438 8.882812 75.128906 8.976562 C 75 9.070312 74.902344 9.183594 74.839844 9.316406 C 74.777344 9.441406 74.75 9.589844 74.75 9.761719 C 74.75 10.050781 74.835938 10.285156 75.015625 10.464844 C 75.203125 10.636719 75.453125 10.722656 75.78125 10.722656 C 76.050781 10.722656 76.292969 10.652344 76.519531 10.511719 C 76.753906 10.371094 76.992188 10.160156 77.238281 9.878906 Z M 77.238281 8.695312 "/>
        <path style=" stroke:none;fill-rule:nonzero;fill:rgb(0%,0%,0%);fill-opacity:1;" d="M 83.453125 9.726562 C 83.453125 10.007812 83.398438 10.261719 83.289062 10.488281 C 83.1875 10.714844 83.039062 10.90625 82.847656 11.0625 C 82.65625 11.214844 82.425781 11.328125 82.15625 11.402344 C 81.890625 11.476562 81.601562 11.519531 81.285156 11.519531 C 81.082031 11.519531 80.894531 11.503906 80.714844 11.472656 C 80.539062 11.441406 80.378906 11.402344 80.242188 11.355469 C 80.101562 11.308594 79.980469 11.261719 79.882812 11.214844 C 79.78125 11.164062 79.707031 11.113281 79.664062 11.074219 C 79.617188 11.027344 79.582031 10.96875 79.558594 10.898438 C 79.539062 10.820312 79.535156 10.714844 79.535156 10.582031 C 79.535156 10.507812 79.539062 10.4375 79.546875 10.382812 C 79.554688 10.332031 79.5625 10.285156 79.570312 10.253906 C 79.585938 10.226562 79.605469 10.203125 79.628906 10.183594 C 79.652344 10.167969 79.679688 10.160156 79.707031 10.160156 C 79.757812 10.160156 79.820312 10.191406 79.90625 10.253906 C 80 10.308594 80.105469 10.371094 80.230469 10.441406 C 80.363281 10.507812 80.515625 10.566406 80.695312 10.617188 C 80.871094 10.671875 81.078125 10.699219 81.308594 10.699219 C 81.476562 10.699219 81.632812 10.683594 81.773438 10.640625 C 81.910156 10.601562 82.03125 10.546875 82.128906 10.476562 C 82.238281 10.40625 82.320312 10.320312 82.375 10.207031 C 82.425781 10.089844 82.453125 9.953125 82.453125 9.796875 C 82.453125 9.640625 82.410156 9.515625 82.328125 9.410156 C 82.25 9.300781 82.144531 9.207031 82.015625 9.117188 C 81.882812 9.03125 81.738281 8.957031 81.574219 8.894531 C 81.414062 8.832031 81.242188 8.765625 81.066406 8.695312 C 80.882812 8.625 80.710938 8.546875 80.542969 8.460938 C 80.378906 8.367188 80.234375 8.257812 80.101562 8.132812 C 79.972656 8 79.867188 7.84375 79.792969 7.664062 C 79.710938 7.484375 79.675781 7.273438 79.675781 7.03125 C 79.675781 6.804688 79.714844 6.59375 79.804688 6.398438 C 79.886719 6.195312 80.011719 6.019531 80.171875 5.871094 C 80.339844 5.714844 80.546875 5.59375 80.800781 5.507812 C 81.050781 5.414062 81.347656 5.367188 81.691406 5.367188 C 81.835938 5.367188 81.984375 5.378906 82.128906 5.402344 C 82.277344 5.425781 82.410156 5.457031 82.523438 5.496094 C 82.648438 5.539062 82.75 5.578125 82.835938 5.625 C 82.921875 5.664062 82.984375 5.703125 83.023438 5.730469 C 83.066406 5.765625 83.097656 5.792969 83.117188 5.824219 C 83.128906 5.847656 83.136719 5.878906 83.136719 5.90625 C 83.144531 5.941406 83.152344 5.976562 83.164062 6.023438 C 83.167969 6.0625 83.171875 6.117188 83.171875 6.1875 C 83.171875 6.257812 83.167969 6.320312 83.164062 6.375 C 83.152344 6.421875 83.140625 6.46875 83.125 6.503906 C 83.117188 6.535156 83.105469 6.558594 83.082031 6.574219 C 83.058594 6.585938 83.035156 6.585938 83.011719 6.585938 C 82.96875 6.585938 82.917969 6.570312 82.847656 6.527344 C 82.78125 6.480469 82.6875 6.429688 82.582031 6.375 C 82.472656 6.320312 82.339844 6.277344 82.1875 6.234375 C 82.042969 6.1875 81.871094 6.164062 81.679688 6.164062 C 81.507812 6.164062 81.359375 6.183594 81.226562 6.222656 C 81.09375 6.261719 80.988281 6.316406 80.902344 6.386719 C 80.816406 6.457031 80.753906 6.542969 80.707031 6.644531 C 80.664062 6.746094 80.648438 6.855469 80.648438 6.972656 C 80.648438 7.128906 80.6875 7.265625 80.765625 7.382812 C 80.847656 7.492188 80.953125 7.589844 81.089844 7.675781 C 81.21875 7.757812 81.367188 7.828125 81.527344 7.898438 C 81.695312 7.960938 81.871094 8.027344 82.050781 8.097656 C 82.226562 8.167969 82.398438 8.246094 82.570312 8.332031 C 82.738281 8.417969 82.890625 8.523438 83.023438 8.648438 C 83.152344 8.773438 83.257812 8.929688 83.335938 9.105469 C 83.410156 9.28125 83.453125 9.484375 83.453125 9.726562 Z M 83.453125 9.726562 "/>
    </g>
</svg>
