<?xml version="1.0" encoding="UTF-8"?>
<svg xmlns="http://www.w3.org/2000/svg" xmlns:xlink="http://www.w3.org/1999/xlink" width="116pt" height="20pt" viewBox="0 0 116 20" version="1.1">
<g id="surface1">
<path style=" stroke:none;fill-rule:nonzero;fill:rgb(100%,100%,100%);fill-opacity:1;" d="M 0 0 L 116 0 L 116 19.984375 L 0 19.984375 Z M 0 0 "/>
<path style=" stroke:none;fill-rule:evenodd;fill:rgb(64.705882%,64.705882%,64.705882%);fill-opacity:1;" d="M 20.851562 2.417969 C 20.851562 1.183594 21.851562 0.179688 23.085938 0.179688 L 113.132812 0.179688 C 114.367188 0.179688 115.367188 1.183594 115.367188 2.417969 L 115.367188 17.566406 C 115.367188 18.800781 114.367188 19.804688 113.132812 19.804688 L 23.085938 19.804688 C 21.851562 19.804688 20.851562 18.800781 20.851562 17.566406 Z M 20.851562 2.417969 "/>
<path style=" stroke:none;fill-rule:evenodd;fill:rgb(26.666667%,44.705882%,76.862745%);fill-opacity:1;" d="M 0.453125 2.148438 C 0.453125 1.0625 1.332031 0.179688 2.417969 0.179688 L 22.769531 0.179688 C 23.855469 0.179688 24.734375 1.0625 24.734375 2.148438 L 24.734375 17.835938 C 24.734375 18.921875 23.855469 19.804688 22.769531 19.804688 L 2.417969 19.804688 C 1.332031 19.804688 0.453125 18.921875 0.453125 17.835938 Z M 0.453125 2.148438 "/>
<path style=" stroke:none;fill-rule:evenodd;fill:rgb(100%,100%,100%);fill-opacity:1;" d="M 20.296875 5.144531 L 19.140625 5.144531 L 19.140625 3.949219 C 19.140625 3.679688 18.941406 3.445312 18.667969 3.40625 C 18.621094 3.398438 17.492188 3.234375 16.132812 3.480469 C 14.621094 3.753906 13.414062 4.429688 12.59375 5.453125 C 11.773438 4.429688 10.566406 3.753906 9.050781 3.480469 C 7.691406 3.234375 6.566406 3.398438 6.519531 3.40625 C 6.246094 3.445312 6.046875 3.679688 6.046875 3.949219 L 6.046875 5.144531 L 4.886719 5.144531 C 4.582031 5.144531 4.332031 5.390625 4.332031 5.695312 L 4.332031 16.085938 C 4.332031 16.265625 4.421875 16.433594 4.566406 16.535156 C 4.710938 16.640625 4.898438 16.667969 5.070312 16.609375 C 5.113281 16.59375 9.265625 15.183594 12.363281 16.589844 C 12.507812 16.65625 12.675781 16.65625 12.824219 16.589844 C 15.910156 15.1875 20.074219 16.59375 20.117188 16.609375 C 20.175781 16.628906 20.238281 16.640625 20.296875 16.640625 C 20.414062 16.640625 20.523438 16.605469 20.621094 16.535156 C 20.765625 16.433594 20.851562 16.265625 20.851562 16.085938 L 20.851562 5.695312 C 20.851562 5.390625 20.605469 5.144531 20.296875 5.144531 Z M 5.441406 15.347656 L 5.441406 6.246094 L 6.046875 6.246094 L 6.046875 13.589844 C 6.046875 13.75 6.117188 13.902344 6.238281 14.007812 C 6.359375 14.113281 6.523438 14.160156 6.679688 14.136719 C 6.710938 14.132812 9.121094 13.804688 10.878906 15.003906 C 8.710938 14.636719 6.542969 15.0625 5.441406 15.347656 Z M 12.039062 14.507812 C 11.265625 13.808594 10.253906 13.339844 9.050781 13.121094 C 8.472656 13.015625 7.9375 12.984375 7.507812 12.984375 C 7.378906 12.984375 7.261719 12.988281 7.152344 12.992188 L 7.152344 4.457031 C 8.21875 4.410156 10.8125 4.523438 12.039062 6.59375 Z M 13.148438 6.59375 C 14.371094 4.53125 16.964844 4.414062 18.03125 4.457031 L 18.03125 12.992188 C 17.566406 12.972656 16.886719 12.984375 16.132812 13.121094 C 14.929688 13.339844 13.921875 13.808594 13.148438 14.507812 Z M 14.304688 15.003906 C 16.066406 13.804688 18.472656 14.132812 18.503906 14.136719 C 18.664062 14.160156 18.824219 14.113281 18.949219 14.007812 C 19.070312 13.902344 19.140625 13.75 19.140625 13.589844 L 19.140625 6.246094 L 19.742188 6.246094 L 19.742188 15.347656 C 18.644531 15.0625 16.472656 14.636719 14.304688 15.003906 Z M 14.304688 15.003906 "/>
<path style=" stroke:none;fill-rule:nonzero;fill:rgb(0%,0%,0%);fill-opacity:1;" d="M 35.226562 7.609375 C 35.226562 8.140625 35.136719 8.625 34.960938 9.0625 C 34.78125 9.492188 34.527344 9.859375 34.195312 10.171875 C 33.871094 10.476562 33.46875 10.710938 32.992188 10.875 C 32.511719 11.042969 31.9375 11.125 31.273438 11.125 L 30.054688 11.125 L 30.054688 14.984375 C 30.054688 15.027344 30.039062 15.070312 30.007812 15.109375 C 29.984375 15.140625 29.949219 15.167969 29.898438 15.1875 C 29.84375 15.207031 29.773438 15.222656 29.679688 15.234375 C 29.585938 15.242188 29.46875 15.25 29.335938 15.25 C 29.199219 15.25 29.085938 15.242188 28.992188 15.234375 C 28.898438 15.222656 28.824219 15.207031 28.773438 15.1875 C 28.71875 15.167969 28.679688 15.140625 28.648438 15.109375 C 28.625 15.070312 28.617188 15.027344 28.617188 14.984375 L 28.617188 5.078125 C 28.617188 4.859375 28.671875 4.703125 28.789062 4.609375 C 28.914062 4.515625 29.046875 4.46875 29.195312 4.46875 L 31.492188 4.46875 C 31.71875 4.46875 31.9375 4.480469 32.148438 4.5 C 32.367188 4.511719 32.621094 4.546875 32.914062 4.609375 C 33.203125 4.671875 33.5 4.792969 33.804688 4.96875 C 34.105469 5.148438 34.359375 5.367188 34.570312 5.625 C 34.777344 5.875 34.9375 6.167969 35.054688 6.5 C 35.167969 6.835938 35.226562 7.203125 35.226562 7.609375 Z M 33.726562 7.71875 C 33.726562 7.28125 33.640625 6.917969 33.476562 6.625 C 33.308594 6.335938 33.105469 6.117188 32.867188 5.96875 C 32.625 5.824219 32.375 5.734375 32.117188 5.703125 C 31.867188 5.664062 31.617188 5.640625 31.367188 5.640625 L 30.054688 5.640625 L 30.054688 9.953125 L 31.335938 9.953125 C 31.773438 9.953125 32.132812 9.898438 32.414062 9.78125 C 32.695312 9.667969 32.929688 9.515625 33.117188 9.328125 C 33.3125 9.132812 33.464844 8.898438 33.570312 8.625 C 33.671875 8.34375 33.726562 8.042969 33.726562 7.71875 Z M 33.726562 7.71875 "/>
<path style=" stroke:none;fill-rule:nonzero;fill:rgb(0%,0%,0%);fill-opacity:1;" d="M 42.300781 15 C 42.300781 15.074219 42.277344 15.125 42.238281 15.15625 C 42.195312 15.1875 42.132812 15.207031 42.050781 15.21875 C 41.976562 15.238281 41.867188 15.25 41.722656 15.25 C 41.574219 15.25 41.457031 15.238281 41.363281 15.21875 C 41.277344 15.207031 41.214844 15.1875 41.175781 15.15625 C 41.144531 15.125 41.128906 15.074219 41.128906 15 L 41.128906 14.25 C 40.804688 14.605469 40.441406 14.882812 40.035156 15.078125 C 39.636719 15.265625 39.214844 15.359375 38.769531 15.359375 C 38.371094 15.359375 38.011719 15.304688 37.691406 15.203125 C 37.378906 15.101562 37.105469 14.953125 36.878906 14.765625 C 36.660156 14.570312 36.488281 14.328125 36.363281 14.046875 C 36.238281 13.765625 36.175781 13.449219 36.175781 13.09375 C 36.175781 12.667969 36.257812 12.304688 36.425781 12 C 36.601562 11.6875 36.847656 11.429688 37.160156 11.21875 C 37.480469 11.011719 37.878906 10.859375 38.347656 10.765625 C 38.816406 10.664062 39.335938 10.609375 39.910156 10.609375 L 40.941406 10.609375 L 40.941406 10.015625 C 40.941406 9.734375 40.910156 9.484375 40.847656 9.265625 C 40.792969 9.039062 40.699219 8.851562 40.566406 8.703125 C 40.429688 8.558594 40.253906 8.449219 40.035156 8.375 C 39.816406 8.304688 39.550781 8.265625 39.238281 8.265625 C 38.902344 8.265625 38.601562 8.308594 38.332031 8.390625 C 38.058594 8.464844 37.820312 8.554688 37.613281 8.65625 C 37.414062 8.75 37.246094 8.839844 37.113281 8.921875 C 36.976562 8.996094 36.878906 9.03125 36.816406 9.03125 C 36.773438 9.03125 36.730469 9.023438 36.691406 9 C 36.660156 8.980469 36.628906 8.949219 36.597656 8.90625 C 36.574219 8.867188 36.558594 8.808594 36.550781 8.734375 C 36.539062 8.664062 36.535156 8.585938 36.535156 8.5 C 36.535156 8.367188 36.542969 8.261719 36.566406 8.1875 C 36.585938 8.105469 36.632812 8.027344 36.707031 7.953125 C 36.777344 7.882812 36.902344 7.796875 37.082031 7.703125 C 37.269531 7.601562 37.480469 7.511719 37.722656 7.4375 C 37.960938 7.355469 38.222656 7.289062 38.503906 7.234375 C 38.785156 7.183594 39.070312 7.15625 39.363281 7.15625 C 39.894531 7.15625 40.347656 7.21875 40.722656 7.34375 C 41.105469 7.460938 41.414062 7.636719 41.644531 7.875 C 41.871094 8.105469 42.039062 8.398438 42.144531 8.75 C 42.246094 9.09375 42.300781 9.5 42.300781 9.96875 Z M 40.941406 11.59375 L 39.769531 11.59375 C 39.394531 11.59375 39.066406 11.625 38.785156 11.6875 C 38.511719 11.75 38.285156 11.84375 38.097656 11.96875 C 37.917969 12.09375 37.789062 12.246094 37.707031 12.421875 C 37.621094 12.589844 37.582031 12.789062 37.582031 13.015625 C 37.582031 13.402344 37.699219 13.714844 37.941406 13.953125 C 38.191406 14.183594 38.535156 14.296875 38.972656 14.296875 C 39.335938 14.296875 39.667969 14.203125 39.972656 14.015625 C 40.285156 13.828125 40.605469 13.546875 40.941406 13.171875 Z M 40.941406 11.59375 "/>
<path style=" stroke:none;fill-rule:nonzero;fill:rgb(0%,0%,0%);fill-opacity:1;" d="M 53.445312 14.453125 C 53.445312 14.609375 53.433594 14.734375 53.414062 14.828125 C 53.390625 14.921875 53.355469 14.992188 53.304688 15.03125 C 53.261719 15.074219 53.199219 15.117188 53.117188 15.15625 C 53.03125 15.199219 52.933594 15.226562 52.820312 15.25 C 52.703125 15.28125 52.578125 15.300781 52.445312 15.3125 C 52.320312 15.332031 52.195312 15.34375 52.070312 15.34375 C 51.683594 15.34375 51.351562 15.289062 51.070312 15.1875 C 50.796875 15.085938 50.574219 14.933594 50.398438 14.734375 C 50.21875 14.527344 50.089844 14.261719 50.007812 13.9375 C 49.921875 13.617188 49.882812 13.242188 49.882812 12.8125 L 49.882812 8.453125 L 46.179688 8.453125 L 46.179688 12.609375 C 46.179688 13.132812 46.25 13.523438 46.398438 13.78125 C 46.554688 14.042969 46.828125 14.171875 47.226562 14.171875 C 47.351562 14.171875 47.460938 14.164062 47.554688 14.140625 C 47.65625 14.109375 47.746094 14.085938 47.820312 14.0625 C 47.902344 14.03125 47.96875 14.007812 48.023438 13.984375 C 48.074219 13.953125 48.125 13.9375 48.179688 13.9375 C 48.199219 13.9375 48.21875 13.949219 48.242188 13.96875 C 48.273438 13.980469 48.292969 14.007812 48.304688 14.046875 C 48.324219 14.078125 48.339844 14.132812 48.351562 14.203125 C 48.359375 14.265625 48.367188 14.351562 48.367188 14.453125 C 48.367188 14.546875 48.359375 14.621094 48.351562 14.671875 C 48.351562 14.726562 48.34375 14.777344 48.335938 14.828125 C 48.324219 14.871094 48.308594 14.914062 48.289062 14.953125 C 48.277344 14.984375 48.25 15.023438 48.210938 15.0625 C 48.167969 15.09375 48.105469 15.132812 48.023438 15.171875 C 47.9375 15.203125 47.839844 15.226562 47.726562 15.25 C 47.609375 15.28125 47.492188 15.300781 47.367188 15.3125 C 47.242188 15.332031 47.117188 15.34375 46.992188 15.34375 C 46.605469 15.34375 46.273438 15.289062 45.992188 15.1875 C 45.710938 15.085938 45.480469 14.933594 45.304688 14.734375 C 45.125 14.527344 44.996094 14.261719 44.914062 13.9375 C 44.839844 13.617188 44.804688 13.242188 44.804688 12.8125 L 44.804688 8.453125 L 43.757812 8.453125 C 43.671875 8.453125 43.605469 8.414062 43.554688 8.328125 C 43.511719 8.234375 43.492188 8.085938 43.492188 7.875 C 43.492188 7.773438 43.496094 7.6875 43.507812 7.625 C 43.515625 7.554688 43.53125 7.492188 43.554688 7.4375 C 43.574219 7.386719 43.601562 7.355469 43.632812 7.34375 C 43.671875 7.324219 43.71875 7.3125 43.773438 7.3125 L 44.804688 7.3125 L 44.804688 5.53125 C 44.804688 5.492188 44.8125 5.453125 44.835938 5.421875 C 44.855469 5.390625 44.890625 5.367188 44.945312 5.34375 C 44.996094 5.3125 45.0625 5.292969 45.148438 5.28125 C 45.242188 5.273438 45.355469 5.265625 45.492188 5.265625 C 45.625 5.265625 45.734375 5.273438 45.820312 5.28125 C 45.914062 5.292969 45.980469 5.3125 46.023438 5.34375 C 46.074219 5.367188 46.109375 5.390625 46.132812 5.421875 C 46.164062 5.453125 46.179688 5.492188 46.179688 5.53125 L 46.179688 7.3125 L 49.882812 7.3125 L 49.882812 5.171875 C 49.882812 5.132812 49.890625 5.09375 49.914062 5.0625 C 49.933594 5.03125 49.96875 5.007812 50.023438 4.984375 C 50.074219 4.964844 50.140625 4.949219 50.226562 4.9375 C 50.320312 4.917969 50.433594 4.90625 50.570312 4.90625 C 50.703125 4.90625 50.8125 4.917969 50.898438 4.9375 C 50.992188 4.949219 51.0625 4.964844 51.117188 4.984375 C 51.167969 5.007812 51.203125 5.03125 51.226562 5.0625 C 51.246094 5.09375 51.257812 5.132812 51.257812 5.171875 L 51.257812 7.3125 L 53.179688 7.3125 C 53.21875 7.3125 53.257812 7.324219 53.289062 7.34375 C 53.320312 7.355469 53.34375 7.386719 53.367188 7.4375 C 53.398438 7.492188 53.417969 7.554688 53.429688 7.625 C 53.4375 7.6875 53.445312 7.773438 53.445312 7.875 C 53.445312 8.085938 53.417969 8.234375 53.367188 8.328125 C 53.3125 8.414062 53.25 8.453125 53.179688 8.453125 L 51.257812 8.453125 L 51.257812 12.609375 C 51.257812 13.132812 51.328125 13.523438 51.476562 13.78125 C 51.632812 14.042969 51.90625 14.171875 52.304688 14.171875 C 52.417969 14.171875 52.527344 14.164062 52.632812 14.140625 C 52.734375 14.109375 52.824219 14.085938 52.898438 14.0625 C 52.980469 14.03125 53.046875 14.007812 53.101562 13.984375 C 53.164062 13.953125 53.214844 13.9375 53.257812 13.9375 C 53.289062 13.9375 53.3125 13.949219 53.335938 13.96875 C 53.355469 13.980469 53.371094 14.007812 53.382812 14.046875 C 53.402344 14.078125 53.417969 14.132812 53.429688 14.203125 C 53.4375 14.265625 53.445312 14.351562 53.445312 14.453125 Z M 53.445312 14.453125 "/>
<path style=" stroke:none;fill-rule:nonzero;fill:rgb(0%,0%,0%);fill-opacity:1;" d="M 61.203125 10.9375 C 61.203125 11.15625 61.148438 11.3125 61.046875 11.40625 C 60.941406 11.492188 60.816406 11.53125 60.671875 11.53125 L 55.78125 11.53125 C 55.78125 11.949219 55.820312 12.324219 55.90625 12.65625 C 55.988281 12.992188 56.125 13.277344 56.3125 13.515625 C 56.507812 13.746094 56.757812 13.929688 57.0625 14.0625 C 57.375 14.1875 57.757812 14.25 58.21875 14.25 C 58.570312 14.25 58.882812 14.226562 59.15625 14.171875 C 59.4375 14.109375 59.675781 14.042969 59.875 13.96875 C 60.070312 13.898438 60.234375 13.835938 60.359375 13.78125 C 60.492188 13.71875 60.597656 13.6875 60.671875 13.6875 C 60.703125 13.6875 60.734375 13.699219 60.765625 13.71875 C 60.796875 13.730469 60.820312 13.757812 60.84375 13.796875 C 60.863281 13.839844 60.875 13.898438 60.875 13.96875 C 60.882812 14.03125 60.890625 14.117188 60.890625 14.21875 C 60.890625 14.292969 60.882812 14.355469 60.875 14.40625 C 60.875 14.460938 60.867188 14.507812 60.859375 14.546875 C 60.847656 14.589844 60.832031 14.625 60.8125 14.65625 C 60.800781 14.6875 60.78125 14.71875 60.75 14.75 C 60.71875 14.78125 60.625 14.835938 60.46875 14.90625 C 60.320312 14.96875 60.128906 15.039062 59.890625 15.109375 C 59.660156 15.171875 59.382812 15.226562 59.0625 15.28125 C 58.75 15.332031 58.414062 15.359375 58.0625 15.359375 C 57.457031 15.359375 56.921875 15.273438 56.453125 15.109375 C 55.992188 14.933594 55.601562 14.679688 55.28125 14.34375 C 54.96875 14 54.726562 13.578125 54.5625 13.078125 C 54.40625 12.570312 54.328125 11.976562 54.328125 11.296875 C 54.328125 10.652344 54.410156 10.074219 54.578125 9.5625 C 54.742188 9.054688 54.984375 8.621094 55.296875 8.265625 C 55.609375 7.902344 55.984375 7.625 56.421875 7.4375 C 56.867188 7.25 57.367188 7.15625 57.921875 7.15625 C 58.503906 7.15625 59 7.25 59.40625 7.4375 C 59.820312 7.625 60.160156 7.882812 60.421875 8.203125 C 60.691406 8.515625 60.890625 8.886719 61.015625 9.3125 C 61.140625 9.742188 61.203125 10.199219 61.203125 10.6875 Z M 59.828125 10.53125 C 59.847656 9.8125 59.6875 9.25 59.34375 8.84375 C 59.007812 8.429688 58.515625 8.21875 57.859375 8.21875 C 57.523438 8.21875 57.226562 8.289062 56.96875 8.421875 C 56.71875 8.546875 56.503906 8.714844 56.328125 8.921875 C 56.160156 9.132812 56.03125 9.375 55.9375 9.65625 C 55.84375 9.9375 55.789062 10.230469 55.78125 10.53125 Z M 59.828125 10.53125 "/>
<path style=" stroke:none;fill-rule:nonzero;fill:rgb(0%,0%,0%);fill-opacity:1;" d="M 67.464844 8.015625 C 67.464844 8.140625 67.457031 8.246094 67.449219 8.328125 C 67.449219 8.414062 67.4375 8.480469 67.417969 8.53125 C 67.394531 8.574219 67.375 8.605469 67.355469 8.625 C 67.332031 8.648438 67.296875 8.65625 67.246094 8.65625 C 67.203125 8.65625 67.152344 8.648438 67.089844 8.625 C 67.027344 8.605469 66.953125 8.585938 66.871094 8.5625 C 66.796875 8.53125 66.707031 8.507812 66.605469 8.484375 C 66.5 8.464844 66.390625 8.453125 66.277344 8.453125 C 66.140625 8.453125 66.003906 8.480469 65.871094 8.53125 C 65.746094 8.585938 65.605469 8.679688 65.449219 8.8125 C 65.300781 8.9375 65.152344 9.105469 64.996094 9.3125 C 64.839844 9.523438 64.660156 9.777344 64.464844 10.078125 L 64.464844 15 C 64.464844 15.042969 64.453125 15.078125 64.433594 15.109375 C 64.410156 15.140625 64.375 15.167969 64.324219 15.1875 C 64.269531 15.207031 64.199219 15.222656 64.105469 15.234375 C 64.019531 15.242188 63.910156 15.25 63.777344 15.25 C 63.640625 15.25 63.527344 15.242188 63.433594 15.234375 C 63.347656 15.222656 63.28125 15.207031 63.230469 15.1875 C 63.175781 15.167969 63.140625 15.140625 63.121094 15.109375 C 63.097656 15.078125 63.089844 15.042969 63.089844 15 L 63.089844 7.53125 C 63.089844 7.480469 63.09375 7.4375 63.105469 7.40625 C 63.125 7.375 63.160156 7.351562 63.214844 7.328125 C 63.265625 7.308594 63.328125 7.292969 63.402344 7.28125 C 63.484375 7.273438 63.589844 7.265625 63.714844 7.265625 C 63.839844 7.265625 63.9375 7.273438 64.011719 7.28125 C 64.09375 7.292969 64.15625 7.308594 64.199219 7.328125 C 64.25 7.351562 64.28125 7.375 64.292969 7.40625 C 64.3125 7.4375 64.324219 7.480469 64.324219 7.53125 L 64.324219 8.609375 C 64.53125 8.308594 64.722656 8.0625 64.902344 7.875 C 65.089844 7.6875 65.261719 7.542969 65.417969 7.4375 C 65.574219 7.335938 65.730469 7.261719 65.886719 7.21875 C 66.050781 7.179688 66.214844 7.15625 66.371094 7.15625 C 66.441406 7.15625 66.527344 7.164062 66.621094 7.171875 C 66.714844 7.171875 66.808594 7.1875 66.902344 7.21875 C 67.003906 7.242188 67.09375 7.265625 67.167969 7.296875 C 67.25 7.320312 67.308594 7.34375 67.339844 7.375 C 67.371094 7.398438 67.390625 7.421875 67.402344 7.453125 C 67.421875 7.476562 67.433594 7.507812 67.433594 7.546875 C 67.441406 7.578125 67.449219 7.636719 67.449219 7.71875 C 67.457031 7.792969 67.464844 7.890625 67.464844 8.015625 Z M 67.464844 8.015625 "/>
<path style=" stroke:none;fill-rule:nonzero;fill:rgb(0%,0%,0%);fill-opacity:1;" d="M 75.320312 15 C 75.320312 15.042969 75.308594 15.078125 75.289062 15.109375 C 75.265625 15.140625 75.230469 15.167969 75.179688 15.1875 C 75.125 15.207031 75.054688 15.222656 74.960938 15.234375 C 74.875 15.242188 74.765625 15.25 74.632812 15.25 C 74.496094 15.25 74.382812 15.242188 74.289062 15.234375 C 74.203125 15.222656 74.136719 15.207031 74.085938 15.1875 C 74.042969 15.167969 74.007812 15.140625 73.976562 15.109375 C 73.953125 15.078125 73.945312 15.042969 73.945312 15 L 73.945312 10.625 C 73.945312 10.199219 73.914062 9.855469 73.851562 9.59375 C 73.789062 9.335938 73.6875 9.109375 73.554688 8.921875 C 73.429688 8.734375 73.261719 8.59375 73.054688 8.5 C 72.855469 8.398438 72.625 8.34375 72.367188 8.34375 C 72.023438 8.34375 71.679688 8.464844 71.335938 8.703125 C 70.992188 8.945312 70.632812 9.304688 70.257812 9.78125 L 70.257812 15 C 70.257812 15.042969 70.246094 15.078125 70.226562 15.109375 C 70.203125 15.140625 70.167969 15.167969 70.117188 15.1875 C 70.0625 15.207031 69.992188 15.222656 69.898438 15.234375 C 69.8125 15.242188 69.703125 15.25 69.570312 15.25 C 69.433594 15.25 69.320312 15.242188 69.226562 15.234375 C 69.140625 15.222656 69.074219 15.207031 69.023438 15.1875 C 68.96875 15.167969 68.933594 15.140625 68.914062 15.109375 C 68.890625 15.078125 68.882812 15.042969 68.882812 15 L 68.882812 7.53125 C 68.882812 7.480469 68.886719 7.4375 68.898438 7.40625 C 68.917969 7.375 68.953125 7.351562 69.007812 7.328125 C 69.058594 7.308594 69.121094 7.292969 69.195312 7.28125 C 69.277344 7.273438 69.382812 7.265625 69.507812 7.265625 C 69.632812 7.265625 69.730469 7.273438 69.804688 7.28125 C 69.886719 7.292969 69.949219 7.308594 69.992188 7.328125 C 70.042969 7.351562 70.074219 7.375 70.085938 7.40625 C 70.105469 7.4375 70.117188 7.480469 70.117188 7.53125 L 70.117188 8.515625 C 70.542969 8.046875 70.964844 7.703125 71.382812 7.484375 C 71.796875 7.265625 72.21875 7.15625 72.648438 7.15625 C 73.148438 7.15625 73.5625 7.242188 73.898438 7.40625 C 74.242188 7.574219 74.515625 7.796875 74.726562 8.078125 C 74.933594 8.359375 75.085938 8.695312 75.179688 9.078125 C 75.273438 9.453125 75.320312 9.90625 75.320312 10.4375 Z M 75.320312 15 "/>
<path style=" stroke:none;fill-rule:nonzero;fill:rgb(0%,0%,0%);fill-opacity:1;" d="M 89.566406 14.703125 C 89.605469 14.820312 89.628906 14.917969 89.628906 15 C 89.636719 15.074219 89.617188 15.132812 89.566406 15.171875 C 89.523438 15.203125 89.449219 15.222656 89.347656 15.234375 C 89.253906 15.242188 89.117188 15.25 88.941406 15.25 C 88.773438 15.25 88.636719 15.242188 88.535156 15.234375 C 88.429688 15.234375 88.351562 15.222656 88.300781 15.203125 C 88.246094 15.183594 88.207031 15.15625 88.175781 15.125 C 88.152344 15.085938 88.132812 15.042969 88.113281 15 L 87.191406 12.375 L 82.722656 12.375 L 81.847656 14.96875 C 81.835938 15.011719 81.816406 15.054688 81.785156 15.09375 C 81.753906 15.125 81.710938 15.15625 81.660156 15.1875 C 81.605469 15.207031 81.535156 15.222656 81.441406 15.234375 C 81.347656 15.242188 81.222656 15.25 81.066406 15.25 C 80.898438 15.25 80.761719 15.242188 80.660156 15.234375 C 80.566406 15.222656 80.496094 15.199219 80.457031 15.15625 C 80.414062 15.117188 80.394531 15.058594 80.394531 14.984375 C 80.394531 14.914062 80.414062 14.8125 80.457031 14.6875 L 84.066406 4.703125 C 84.085938 4.652344 84.113281 4.605469 84.144531 4.5625 C 84.183594 4.523438 84.238281 4.492188 84.300781 4.46875 C 84.371094 4.449219 84.460938 4.433594 84.566406 4.421875 C 84.679688 4.414062 84.820312 4.40625 84.988281 4.40625 C 85.164062 4.40625 85.308594 4.414062 85.425781 4.421875 C 85.539062 4.433594 85.632812 4.449219 85.707031 4.46875 C 85.777344 4.492188 85.832031 4.523438 85.863281 4.5625 C 85.902344 4.605469 85.941406 4.65625 85.972656 4.71875 Z M 84.941406 5.890625 L 83.082031 11.25 L 86.816406 11.25 Z M 84.941406 5.890625 "/>
<path style=" stroke:none;fill-rule:nonzero;fill:rgb(0%,0%,0%);fill-opacity:1;" d="M 94.433594 14.453125 C 94.433594 14.609375 94.421875 14.734375 94.402344 14.828125 C 94.378906 14.921875 94.34375 14.996094 94.292969 15.046875 C 94.25 15.089844 94.183594 15.132812 94.089844 15.171875 C 94.003906 15.203125 93.90625 15.226562 93.792969 15.25 C 93.675781 15.28125 93.558594 15.300781 93.433594 15.3125 C 93.308594 15.332031 93.183594 15.34375 93.058594 15.34375 C 92.671875 15.34375 92.339844 15.289062 92.058594 15.1875 C 91.777344 15.085938 91.546875 14.933594 91.371094 14.734375 C 91.191406 14.527344 91.0625 14.261719 90.980469 13.9375 C 90.90625 13.617188 90.871094 13.242188 90.871094 12.8125 L 90.871094 8.453125 L 89.824219 8.453125 C 89.738281 8.453125 89.671875 8.414062 89.621094 8.328125 C 89.578125 8.234375 89.558594 8.085938 89.558594 7.875 C 89.558594 7.773438 89.5625 7.6875 89.574219 7.625 C 89.582031 7.554688 89.597656 7.492188 89.621094 7.4375 C 89.640625 7.386719 89.667969 7.355469 89.699219 7.34375 C 89.738281 7.324219 89.785156 7.3125 89.839844 7.3125 L 90.871094 7.3125 L 90.871094 5.53125 C 90.871094 5.492188 90.878906 5.453125 90.902344 5.421875 C 90.921875 5.390625 90.957031 5.367188 91.011719 5.34375 C 91.0625 5.3125 91.128906 5.292969 91.214844 5.28125 C 91.308594 5.273438 91.421875 5.265625 91.558594 5.265625 C 91.691406 5.265625 91.800781 5.273438 91.886719 5.28125 C 91.980469 5.292969 92.046875 5.3125 92.089844 5.34375 C 92.140625 5.367188 92.175781 5.390625 92.199219 5.421875 C 92.230469 5.453125 92.246094 5.492188 92.246094 5.53125 L 92.246094 7.3125 L 94.152344 7.3125 C 94.203125 7.3125 94.246094 7.324219 94.277344 7.34375 C 94.308594 7.355469 94.332031 7.386719 94.355469 7.4375 C 94.386719 7.492188 94.40625 7.554688 94.417969 7.625 C 94.425781 7.6875 94.433594 7.773438 94.433594 7.875 C 94.433594 8.085938 94.40625 8.234375 94.355469 8.328125 C 94.300781 8.414062 94.234375 8.453125 94.152344 8.453125 L 92.246094 8.453125 L 92.246094 12.609375 C 92.246094 13.132812 92.316406 13.523438 92.464844 13.78125 C 92.621094 14.042969 92.894531 14.171875 93.292969 14.171875 C 93.417969 14.171875 93.527344 14.164062 93.621094 14.140625 C 93.722656 14.109375 93.8125 14.085938 93.886719 14.0625 C 93.96875 14.03125 94.035156 14.007812 94.089844 13.984375 C 94.140625 13.953125 94.191406 13.9375 94.246094 13.9375 C 94.265625 13.9375 94.285156 13.949219 94.308594 13.96875 C 94.339844 13.980469 94.359375 14.007812 94.371094 14.046875 C 94.390625 14.078125 94.40625 14.132812 94.417969 14.203125 C 94.425781 14.265625 94.433594 14.351562 94.433594 14.453125 Z M 94.433594 14.453125 "/>
<path style=" stroke:none;fill-rule:nonzero;fill:rgb(0%,0%,0%);fill-opacity:1;" d="M 97.480469 15 C 97.480469 15.042969 97.46875 15.078125 97.449219 15.109375 C 97.425781 15.140625 97.390625 15.167969 97.339844 15.1875 C 97.285156 15.207031 97.214844 15.222656 97.121094 15.234375 C 97.035156 15.242188 96.925781 15.25 96.792969 15.25 C 96.65625 15.25 96.542969 15.242188 96.449219 15.234375 C 96.363281 15.222656 96.296875 15.207031 96.246094 15.1875 C 96.191406 15.167969 96.15625 15.140625 96.136719 15.109375 C 96.113281 15.078125 96.105469 15.042969 96.105469 15 L 96.105469 3.90625 C 96.105469 3.867188 96.113281 3.828125 96.136719 3.796875 C 96.15625 3.757812 96.191406 3.726562 96.246094 3.703125 C 96.296875 3.683594 96.363281 3.667969 96.449219 3.65625 C 96.542969 3.648438 96.65625 3.640625 96.792969 3.640625 C 96.925781 3.640625 97.035156 3.648438 97.121094 3.65625 C 97.214844 3.667969 97.285156 3.683594 97.339844 3.703125 C 97.390625 3.726562 97.425781 3.757812 97.449219 3.796875 C 97.46875 3.828125 97.480469 3.867188 97.480469 3.90625 Z M 97.480469 15 "/>
<path style=" stroke:none;fill-rule:nonzero;fill:rgb(0%,0%,0%);fill-opacity:1;" d="M 105.542969 15 C 105.542969 15.074219 105.519531 15.125 105.480469 15.15625 C 105.4375 15.1875 105.375 15.207031 105.292969 15.21875 C 105.21875 15.238281 105.109375 15.25 104.964844 15.25 C 104.816406 15.25 104.699219 15.238281 104.605469 15.21875 C 104.519531 15.207031 104.457031 15.1875 104.417969 15.15625 C 104.386719 15.125 104.371094 15.074219 104.371094 15 L 104.371094 14.25 C 104.046875 14.605469 103.683594 14.882812 103.277344 15.078125 C 102.878906 15.265625 102.457031 15.359375 102.011719 15.359375 C 101.613281 15.359375 101.253906 15.304688 100.933594 15.203125 C 100.621094 15.101562 100.347656 14.953125 100.121094 14.765625 C 99.902344 14.570312 99.730469 14.328125 99.605469 14.046875 C 99.480469 13.765625 99.417969 13.449219 99.417969 13.09375 C 99.417969 12.667969 99.5 12.304688 99.667969 12 C 99.84375 11.6875 100.089844 11.429688 100.402344 11.21875 C 100.722656 11.011719 101.121094 10.859375 101.589844 10.765625 C 102.058594 10.664062 102.578125 10.609375 103.152344 10.609375 L 104.183594 10.609375 L 104.183594 10.015625 C 104.183594 9.734375 104.152344 9.484375 104.089844 9.265625 C 104.035156 9.039062 103.941406 8.851562 103.808594 8.703125 C 103.671875 8.558594 103.496094 8.449219 103.277344 8.375 C 103.058594 8.304688 102.792969 8.265625 102.480469 8.265625 C 102.144531 8.265625 101.84375 8.308594 101.574219 8.390625 C 101.300781 8.464844 101.0625 8.554688 100.855469 8.65625 C 100.65625 8.75 100.488281 8.839844 100.355469 8.921875 C 100.21875 8.996094 100.121094 9.03125 100.058594 9.03125 C 100.015625 9.03125 99.972656 9.023438 99.933594 9 C 99.902344 8.980469 99.871094 8.949219 99.839844 8.90625 C 99.816406 8.867188 99.800781 8.808594 99.792969 8.734375 C 99.78125 8.664062 99.777344 8.585938 99.777344 8.5 C 99.777344 8.367188 99.785156 8.261719 99.808594 8.1875 C 99.828125 8.105469 99.875 8.027344 99.949219 7.953125 C 100.019531 7.882812 100.144531 7.796875 100.324219 7.703125 C 100.511719 7.601562 100.722656 7.511719 100.964844 7.4375 C 101.203125 7.355469 101.464844 7.289062 101.746094 7.234375 C 102.027344 7.183594 102.3125 7.15625 102.605469 7.15625 C 103.136719 7.15625 103.589844 7.21875 103.964844 7.34375 C 104.347656 7.460938 104.65625 7.636719 104.886719 7.875 C 105.113281 8.105469 105.28125 8.398438 105.386719 8.75 C 105.488281 9.09375 105.542969 9.5 105.542969 9.96875 Z M 104.183594 11.59375 L 103.011719 11.59375 C 102.636719 11.59375 102.308594 11.625 102.027344 11.6875 C 101.753906 11.75 101.527344 11.84375 101.339844 11.96875 C 101.160156 12.09375 101.03125 12.246094 100.949219 12.421875 C 100.863281 12.589844 100.824219 12.789062 100.824219 13.015625 C 100.824219 13.402344 100.941406 13.714844 101.183594 13.953125 C 101.433594 14.183594 101.777344 14.296875 102.214844 14.296875 C 102.578125 14.296875 102.910156 14.203125 103.214844 14.015625 C 103.527344 13.828125 103.847656 13.546875 104.183594 13.171875 Z M 104.183594 11.59375 "/>
<path style=" stroke:none;fill-rule:nonzero;fill:rgb(0%,0%,0%);fill-opacity:1;" d="M 112.5625 12.96875 C 112.5625 13.34375 112.488281 13.683594 112.34375 13.984375 C 112.207031 14.289062 112.007812 14.542969 111.75 14.75 C 111.488281 14.949219 111.175781 15.101562 110.8125 15.203125 C 110.457031 15.304688 110.066406 15.359375 109.640625 15.359375 C 109.367188 15.359375 109.113281 15.335938 108.875 15.296875 C 108.632812 15.253906 108.421875 15.203125 108.234375 15.140625 C 108.046875 15.078125 107.882812 15.015625 107.75 14.953125 C 107.613281 14.882812 107.515625 14.820312 107.453125 14.765625 C 107.390625 14.703125 107.34375 14.625 107.3125 14.53125 C 107.289062 14.429688 107.28125 14.289062 107.28125 14.109375 C 107.28125 14.007812 107.285156 13.917969 107.296875 13.84375 C 107.304688 13.773438 107.316406 13.714844 107.328125 13.671875 C 107.347656 13.632812 107.375 13.601562 107.40625 13.578125 C 107.4375 13.558594 107.472656 13.546875 107.515625 13.546875 C 107.578125 13.546875 107.664062 13.589844 107.78125 13.671875 C 107.90625 13.746094 108.050781 13.828125 108.21875 13.921875 C 108.394531 14.007812 108.601562 14.085938 108.84375 14.15625 C 109.082031 14.230469 109.359375 14.265625 109.671875 14.265625 C 109.898438 14.265625 110.109375 14.242188 110.296875 14.1875 C 110.484375 14.136719 110.644531 14.0625 110.78125 13.96875 C 110.925781 13.875 111.035156 13.757812 111.109375 13.609375 C 111.179688 13.453125 111.21875 13.273438 111.21875 13.0625 C 111.21875 12.855469 111.160156 12.683594 111.046875 12.546875 C 110.941406 12.402344 110.800781 12.273438 110.625 12.15625 C 110.445312 12.042969 110.25 11.945312 110.03125 11.859375 C 109.8125 11.777344 109.582031 11.6875 109.34375 11.59375 C 109.101562 11.5 108.867188 11.398438 108.640625 11.28125 C 108.421875 11.15625 108.222656 11.011719 108.046875 10.84375 C 107.867188 10.667969 107.726562 10.460938 107.625 10.21875 C 107.519531 9.980469 107.46875 9.699219 107.46875 9.375 C 107.46875 9.074219 107.523438 8.792969 107.640625 8.53125 C 107.753906 8.261719 107.921875 8.027344 108.140625 7.828125 C 108.367188 7.621094 108.648438 7.460938 108.984375 7.34375 C 109.328125 7.21875 109.726562 7.15625 110.1875 7.15625 C 110.382812 7.15625 110.582031 7.171875 110.78125 7.203125 C 110.976562 7.234375 111.15625 7.277344 111.3125 7.328125 C 111.476562 7.382812 111.617188 7.4375 111.734375 7.5 C 111.847656 7.554688 111.929688 7.601562 111.984375 7.640625 C 112.046875 7.683594 112.085938 7.726562 112.109375 7.765625 C 112.128906 7.796875 112.140625 7.835938 112.140625 7.875 C 112.148438 7.917969 112.160156 7.96875 112.171875 8.03125 C 112.179688 8.085938 112.1875 8.15625 112.1875 8.25 C 112.1875 8.34375 112.179688 8.429688 112.171875 8.5 C 112.160156 8.5625 112.144531 8.621094 112.125 8.671875 C 112.113281 8.714844 112.09375 8.746094 112.0625 8.765625 C 112.03125 8.777344 112 8.78125 111.96875 8.78125 C 111.914062 8.78125 111.84375 8.757812 111.75 8.703125 C 111.65625 8.640625 111.535156 8.574219 111.390625 8.5 C 111.242188 8.429688 111.066406 8.367188 110.859375 8.3125 C 110.660156 8.25 110.429688 8.21875 110.171875 8.21875 C 109.941406 8.21875 109.738281 8.246094 109.5625 8.296875 C 109.382812 8.351562 109.238281 8.421875 109.125 8.515625 C 109.007812 8.609375 108.921875 8.726562 108.859375 8.859375 C 108.804688 8.996094 108.78125 9.140625 108.78125 9.296875 C 108.78125 9.507812 108.832031 9.6875 108.9375 9.84375 C 109.050781 9.992188 109.195312 10.121094 109.375 10.234375 C 109.550781 10.339844 109.75 10.4375 109.96875 10.53125 C 110.195312 10.617188 110.429688 10.703125 110.671875 10.796875 C 110.910156 10.890625 111.144531 10.996094 111.375 11.109375 C 111.601562 11.226562 111.804688 11.367188 111.984375 11.53125 C 112.160156 11.699219 112.300781 11.902344 112.40625 12.140625 C 112.507812 12.371094 112.5625 12.648438 112.5625 12.96875 Z M 112.5625 12.96875 "/>
</g>
</svg>
